<?xml version="1.0" encoding="utf-8"?><!--Generator: Adobe Illustrator 24.0.1, SVG Export Plug-In . SVG Version: 6.00 Build 0)--><svg version="1.1" id="圖層_1" xmlns="http://www.w3.org/2000/svg" xmlns:xlink="http://www.w3.org/1999/xlink" x="0px" y="0px" viewBox="0 0 100 100" enable-background="new 0 0 100 100" xml:space="preserve"><g><path fill="#E15B64" d="M88.24,13.99H11.76c-2.31,0-4.18,1.87-4.18,4.18v15.21h84.83V18.17C92.42,15.86,90.55,13.99,88.24,13.99z"/><circle fill="#C33737" cx="19.8" cy="23.95" r="3.5"/><line fill="#333333" stroke="#CCCCCC" stroke-width="4" stroke-linecap="round" stroke-miterlimit="10" x1="19.8" y1="10.03" x2="19.8" y2="23.95"/><circle fill="#C33737" cx="34.91" cy="23.95" r="3.5"/><line fill="#333333" stroke="#CCCCCC" stroke-width="4" stroke-linecap="round" stroke-miterlimit="10" x1="34.91" y1="10.03" x2="34.91" y2="23.95"/><circle fill="#C33737" cx="50.01" cy="23.95" r="3.5"/><line fill="#333333" stroke="#CCCCCC" stroke-width="4" stroke-linecap="round" stroke-miterlimit="10" x1="50.01" y1="10.03" x2="50.01" y2="23.95"/><circle fill="#C33737" cx="65.11" cy="23.95" r="3.5"/><line fill="#333333" stroke="#CCCCCC" stroke-width="4" stroke-linecap="round" stroke-miterlimit="10" x1="65.11" y1="10.03" x2="65.11" y2="23.95"/><circle fill="#C33737" cx="80.22" cy="23.95" r="3.5"/><line fill="#333333" stroke="#CCCCCC" stroke-width="4" stroke-linecap="round" stroke-miterlimit="10" x1="80.22" y1="10.03" x2="80.22" y2="23.95"/></g><g><path fill="#E0E0E0" d="M7.58,33.38v51.84c0,2.31,1.87,4.18,4.18,4.18h64.95h1.4l14.3-14.3v-1.4V33.38H7.58z"/><path fill="#B3B3B3" d="M92.42,73.69H81.27c-2.52,0-4.55,2.04-4.55,4.55V89.4h1.4l14.3-14.3V73.69z"/></g><g><rect x="54.32" y="47.94" transform="matrix(0.7123 0.7018 -0.7018 0.7123 52.9811 -27.0133)" fill="#F2F2F2" width="10.24" height="6.37"/><path fill="#E15B64" d="M65.33,52.45l-7.3-7.19l4.14-4.2c1.08-1.1,2.86-1.11,3.96-0.03l3.31,3.26c1.1,1.08,1.11,2.86,0.03,3.96 L65.33,52.45z"/><rect x="31.47" y="59.05" transform="matrix(0.7018 -0.7123 0.7123 0.7018 -31.8176 52.3221)" fill="#ABBD81" width="30.25" height="10.24"/><polygon fill="#F8B26A" points="28.79,82.24 32.33,71.35 39.62,78.54 	"/><polygon fill="#333333" points="34.21,80.39 30.56,76.8 28.79,82.24 	"/></g><metadata xmlns:d="https://loading.io/stock/">
<d:name>calendar</d:name>
<d:tags>calendar,schedule,plan,work,business,special,remark,note,pencil</d:tags>
<d:license>by</d:license>
<d:slug>lt9vo</d:slug>
</metadata></svg>