<?xml version="1.0"?><svg version="1.1" id="Layer_1" xmlns="http://www.w3.org/2000/svg" x="0" y="0" viewBox="0 0 100 100" xml:space="preserve"><g><path fill="#fff" stroke="#333" stroke-linejoin="round" stroke-width="3.5" stroke-miterlimit="10" d="M11.369 18.469v63.062h47.963V18.469z"/><path fill="none" stroke-linejoin="round" stroke="#333" stroke-width="3.5" stroke-linecap="round" stroke-miterlimit="10" d="M22.028 28.239h26.646"/><path fill="none" stroke-linejoin="round" stroke="#333" stroke-width="3.5" stroke-linecap="round" stroke-miterlimit="10" d="M22.028 37.121h26.646"/><path fill="none" stroke-linejoin="round" stroke="#333" stroke-width="3.5" stroke-linecap="round" stroke-miterlimit="10" d="M22.028 46.003h26.646"/><path fill="none" stroke-linejoin="round" stroke="#333" stroke-width="3.5" stroke-linecap="round" stroke-miterlimit="10" d="M22.028 54.885h26.646"/><path fill="none" stroke-linejoin="round" stroke="#333" stroke-width="3.5" stroke-linecap="round" stroke-miterlimit="10" d="M22.028 63.767h26.646"/><path fill="none" stroke-linejoin="round" stroke="#333" stroke-width="3.5" stroke-linecap="round" stroke-miterlimit="10" d="M22.028 72.649h4.576"/><path opacity=".2" stroke="#000" stroke-width="3.5" stroke-miterlimit="10" d="M30.343 81.531h28.989V18.469H42.043z"/></g><g><path stroke="#333" stroke-linejoin="round" fill="#f47e5f" stroke-width="3.499965" stroke-miterlimit="10" d="M73.422 26.926L84.727 38.23 53.324 69.633 42.02 58.328z"/><path stroke="#333" stroke-linejoin="round" fill="#f4e6c8" stroke-width="3.499965" stroke-miterlimit="10" d="M80.33 20.016l11.305 11.306-6.908 6.908L73.42 26.925z"/><path d="M53.075 69.882L41.77 58.577l-4.044 14.442a.736.736 0 0 0 .907.907l14.442-4.044z" stroke-width="3.5" stroke-miterlimit="10" fill="#f7b26a" stroke="#333" stroke-linejoin="round"/><path fill="none" stroke-linejoin="round" stroke="#333" stroke-width="3.5" stroke-linecap="round" stroke-miterlimit="10" d="M54.26 58.009l18.842-18.841"/><path d="M39.237 67.625l-1.51 5.394a.736.736 0 0 0 .907.907l5.394-1.51-4.791-4.791z" stroke-width="3.5" stroke-miterlimit="10" fill="#333" stroke-linecap="round" stroke="#333" stroke-linejoin="round"/><path d="M92.861 30.096l-5.504-5.504-50.501 50.501a2.462 2.462 0 0 0 2.245.504l14.442-4.044c.344-.096.634-.303.856-.568.051-.041.104-.076.151-.123L92.862 32.55a1.736 1.736 0 0 0-.001-2.454z" opacity=".2"/></g><metadata xmlns:d="https://loading.io/stock/">
<d:name>text</d:name>
<d:tags>text,document,article,write,writer,editor,composer,journalism,news reporter,journalist,author</d:tags>
<d:license>by</d:license>
<d:slug>xz5ng8</d:slug>
</metadata></svg>